<svg width="135" height="135" viewBox="0 0 135 135" fill="none" xmlns="http://www.w3.org/2000/svg">
<path d="M49.8369 23.279C49.8369 22.5084 50.4616 21.8837 51.2323 21.8837H82.8602C83.6308 21.8837 84.2555 22.5084 84.2555 23.279V23.279C84.2555 24.0496 83.6308 24.6744 82.8602 24.6744H51.2323C50.4616 24.6744 49.8369 24.0496 49.8369 23.279V23.279Z" fill="white"/>
<path d="M34.0229 34.4419C34.0229 33.6712 34.6477 33.0465 35.4183 33.0465H98.6741C99.4447 33.0465 100.069 33.6712 100.069 34.4419V34.4419C100.069 35.2125 99.4447 35.8372 98.6741 35.8372H35.4183C34.6477 35.8372 34.0229 35.2125 34.0229 34.4419V34.4419Z" fill="white"/>
<path d="M34.9531 45.6047C34.9531 44.8341 35.5778 44.2094 36.3485 44.2094H77.5435C78.3142 44.2094 78.9389 44.8341 78.9389 45.6047V45.6047C78.9389 46.3753 78.3142 47 77.5435 47H36.3485C35.5778 47 34.9531 46.3753 34.9531 45.6047V45.6047Z" fill="white"/>
<path d="M53.0283 56.7674C53.0283 55.9968 53.653 55.3721 54.4237 55.3721H99.8892C100.66 55.3721 101.285 55.9968 101.285 56.7674V56.7674C101.285 57.538 100.66 58.1628 99.8892 58.1628H54.4237C53.653 58.1628 53.0283 57.538 53.0283 56.7674V56.7674Z" fill="white"/>
<path d="M34.6655 67.9303C34.6655 67.1596 35.2902 66.5349 36.0609 66.5349H77.683C78.4536 66.5349 79.0783 67.1596 79.0783 67.9303V67.9303C79.0783 68.7009 78.4536 69.3256 77.683 69.3256H36.0609C35.2902 69.3256 34.6655 68.7009 34.6655 67.9303V67.9303Z" fill="white"/>
<path d="M82.9219 67.9303C82.9219 67.1596 83.5466 66.5349 84.3172 66.5349H99.8895C100.66 66.5349 101.285 67.1596 101.285 67.9303V67.9303C101.285 68.7009 100.66 69.3256 99.8895 69.3256H84.3172C83.5466 69.3256 82.9219 68.7009 82.9219 67.9303V67.9303Z" fill="white"/>
<path d="M111.232 98.1628C112.26 98.1628 113.093 98.9958 113.093 100.023L113.093 112.116C113.093 113.144 112.26 113.977 111.232 113.977V113.977C110.205 113.977 109.372 113.144 109.372 112.116L109.372 100.023C109.372 98.9958 110.205 98.1628 111.232 98.1628V98.1628Z" fill="white"/>
<path d="M63.2773 79.093C63.2773 78.3224 63.9021 77.6976 64.6727 77.6976H79.8179C80.5886 77.6976 81.2133 78.3224 81.2133 79.093V79.093C81.2133 79.8636 80.5886 80.4883 79.8179 80.4883H64.6727C63.9021 80.4883 63.2773 79.8636 63.2773 79.093V79.093Z" fill="white"/>
<path d="M31.2324 56.7674C31.2324 55.9968 31.8571 55.3721 32.6278 55.3721H47.773C48.5436 55.3721 49.1684 55.9968 49.1684 56.7674V56.7674C49.1684 57.538 48.5436 58.1628 47.773 58.1628H32.6278C31.8571 58.1628 31.2324 57.538 31.2324 56.7674V56.7674Z" fill="white"/>
<path d="M34.6655 79.093C34.6655 78.3224 35.2902 77.6976 36.0609 77.6976H57.6118C58.3824 77.6976 59.0072 78.3224 59.0072 79.093V79.093C59.0072 79.8636 58.3824 80.4883 57.6118 80.4883H36.0609C35.2902 80.4883 34.6655 79.8636 34.6655 79.093V79.093Z" fill="white"/>
<path d="M38.6743 110.559L44.2985 93.8803C44.6056 92.9695 45.6202 92.5099 46.5074 92.8795V92.8795C47.0743 93.1157 47.4642 93.6458 47.5208 94.2573L48.3962 103.711C48.4567 104.365 48.9083 104.917 49.5375 105.106V105.106C50.1929 105.303 50.901 105.064 51.3035 104.51L51.7825 103.852C52.8943 102.323 55.1791 102.339 56.2692 103.883L56.6985 104.492C57.947 106.26 60.5331 106.364 61.919 104.701L66.6458 99.0285" stroke="white" stroke-width="2"/>
<path fill-rule="evenodd" clip-rule="evenodd" d="M98.093 11H36C29.9249 11 25 15.9249 25 22V112C25 118.075 29.9249 123 36 123H98.093C104.168 123 109.093 118.075 109.093 112V22C109.093 15.9249 104.168 11 98.093 11ZM36 7C27.7157 7 21 13.7157 21 22V112C21 120.284 27.7157 127 36 127H98.093C106.377 127 113.093 120.284 113.093 112V22C113.093 13.7157 106.377 7 98.093 7H36Z" fill="white"/>
<circle cx="87.9768" cy="98.1628" r="11.093" stroke="white" stroke-width="2"/>
<path d="M75.1059 119.775L71.7841 118.684L76.1197 111.175L78.1648 114.054L78.4287 114.425L78.8823 114.47L82.4471 114.82L78.1068 122.338L75.4594 119.978L75.3038 119.84L75.1059 119.775Z" stroke="white" stroke-width="2"/>
<path d="M99.3531 120.004L96.7478 122.336L92.4121 114.826L95.9279 114.494L96.3815 114.452L96.6469 114.081L98.7328 111.169L103.073 118.687L99.7061 119.8L99.5083 119.865L99.3531 120.004Z" stroke="white" stroke-width="2"/>
<path d="M87.9768 82.3489L92.0049 86.8838H83.9488L87.9768 82.3489Z" fill="white"/>
<path d="M87.9768 113.279L92.0049 108.919H83.9488L87.9768 113.279Z" fill="white"/>
<path d="M103.093 99.0931L98.7323 103.121L98.7323 95.065L103.093 99.0931Z" fill="white"/>
<path d="M72.1626 99.0931L76.5231 103.121L76.5231 95.065L72.1626 99.0931Z" fill="white"/>
<path d="M95.842 84.6745L97.1501 90.4647L90.1734 86.4367L95.842 84.6745Z" fill="white"/>
<path d="M79.9118 112.035L85.5804 110.273L78.6037 106.245L79.9118 112.035Z" fill="white"/>
<path d="M100.919 106.958L95.1283 108.266L99.1563 101.29L100.919 106.958Z" fill="white"/>
<path d="M74.4884 91.028L76.2506 96.6966L80.2787 89.7199L74.4884 91.028Z" fill="white"/>
<path d="M101.849 91.028L100.087 96.6966L96.0587 89.7199L101.849 91.028Z" fill="white"/>
<path d="M74.4882 106.958L80.2785 108.266L76.2504 101.29L74.4882 106.958Z" fill="white"/>
<path d="M94.9114 112.035L89.2428 110.273L96.2196 106.245L94.9114 112.035Z" fill="white"/>
<path d="M79.9114 84.6745L78.6033 90.4647L85.58 86.4367L79.9114 84.6745Z" fill="white"/>
<circle cx="87.977" cy="98.1628" r="6.51163" fill="white"/>
</svg>
