<svg width="135" height="135" viewBox="0 0 135 135" fill="none" xmlns="http://www.w3.org/2000/svg">
<rect x="1.5" y="-1.5" width="110.613" height="11.9895" transform="matrix(1 0 0 -1 10.355 82.3051)" stroke="white" stroke-width="3"/>
<rect x="1.5" y="-1.5" width="110.613" height="11.9895" transform="matrix(1 0 0 -1 10.355 101.577)" stroke="white" stroke-width="3"/>
<rect x="1.5" y="-1.5" width="110.613" height="11.9895" transform="matrix(1 0 0 -1 10.355 120.849)" stroke="white" stroke-width="3"/>
<path d="M82.2806 67.6565L95.7408 37.4702L99.5106 39.6239C100.528 40.2048 101.618 40.6457 102.753 40.9345L107.283 42.0873L96.2463 67.6565H82.2806Z" stroke="white" stroke-width="2"/>
<mask id="path-5-inside-1" fill="white">
<path fill-rule="evenodd" clip-rule="evenodd" d="M107.639 10.2405C99.7959 9.94525 92.5626 14.1179 90.1959 20.9269C87.2986 29.2623 92.7919 38.3921 102.465 41.3188C112.139 44.2455 122.329 39.8609 125.227 31.5254C127.274 25.6365 125.132 19.351 120.288 15.1366L114.208 27.1579L106.47 27.2103L102.422 20.3578L107.639 10.2405Z"/>
</mask>
<path d="M90.1959 20.9269L88.3068 20.2703L90.1959 20.9269ZM107.639 10.2405L109.416 11.1571L110.858 8.36034L107.714 8.24195L107.639 10.2405ZM102.465 41.3188L101.886 43.2331L101.886 43.2331L102.465 41.3188ZM125.227 31.5254L123.338 30.8688L123.338 30.8688L125.227 31.5254ZM120.288 15.1366L121.601 13.6277L119.663 11.9417L118.503 14.234L120.288 15.1366ZM114.208 27.1579L114.221 29.1579L115.442 29.1496L115.993 28.0606L114.208 27.1579ZM106.47 27.2103L104.748 28.2274L105.333 29.218L106.483 29.2102L106.47 27.2103ZM102.422 20.3578L100.645 19.4413L100.138 20.4235L100.7 21.375L102.422 20.3578ZM92.085 21.5835C94.1031 15.7776 100.402 11.9695 107.563 12.2391L107.714 8.24195C99.1897 7.92101 91.0221 12.4583 88.3068 20.2703L92.085 21.5835ZM103.044 39.4045C94.1908 36.7258 89.6468 28.5982 92.085 21.5835L88.3068 20.2703C84.9504 29.9264 91.3929 40.0584 101.886 43.2331L103.044 39.4045ZM123.338 30.8688C120.869 37.972 111.928 42.0923 103.044 39.4045L101.886 43.2331C112.349 46.3987 123.79 41.7498 127.116 32.1821L123.338 30.8688ZM118.975 16.6456C123.31 20.4162 125.073 25.8768 123.338 30.8688L127.116 32.1821C129.474 25.3962 126.955 18.2858 121.601 13.6277L118.975 16.6456ZM118.503 14.234L112.423 26.2552L115.993 28.0606L122.073 16.0393L118.503 14.234ZM114.194 25.158L106.456 25.2103L106.483 29.2102L114.221 29.1579L114.194 25.158ZM108.192 26.1931L104.144 19.3407L100.7 21.375L104.748 28.2274L108.192 26.1931ZM104.2 21.2743L109.416 11.1571L105.861 9.32401L100.645 19.4413L104.2 21.2743Z" fill="white" mask="url(#path-5-inside-1)"/>
<path d="M66.3358 45.6491L61.6101 17.6153L55.1177 18.568L59.8434 46.6017" stroke="white" stroke-width="2"/>
<path d="M52.2226 16.3995L52.9636 6.62212L59.3202 6.04353L64.2479 14.8013L61.6698 17.2988L55.8037 18.1595L52.2226 16.3995Z" stroke="white" stroke-width="2"/>
<path d="M58.8793 67.6598L56.4475 52.0837L72.5974 49.714L75.3325 67.6598L58.8793 67.6598Z" stroke="white" stroke-width="2"/>
<path d="M63.1965 45.7864L74.2464 45.1318L75.0303 49.1513L53.9091 52.2505L53.2517 48.5536L63.1965 45.7864Z" stroke="white" stroke-width="2"/>
<path d="M40.2605 57.0849C38.1118 57.4263 36.06 58.1565 34.2116 59.239L25.4212 37.5243L31.366 35.4155L40.2605 57.0849Z" stroke="white" stroke-width="2"/>
<path d="M46.5137 62.8505L48.2818 67.7641L33.3981 67.7641L33.0963 66.8843C31.8967 63.3869 33.6906 59.683 37.1843 58.4437C40.9299 57.115 45.1706 59.1182 46.5137 62.8505Z" stroke="white" stroke-width="2"/>
<path d="M17.8504 30.7236L21.4812 29.5044L24.5671 37.5039L20.9362 38.723L17.8504 30.7236Z" stroke="white" stroke-width="2"/>
<path d="M8.20386 32.0312L14.8196 29.8097C15.8668 29.4581 17.0379 30.0085 17.4354 31.0391L20.6752 39.4375C21.0727 40.4681 20.5462 41.5885 19.499 41.9401L12.8833 44.1616C11.8361 44.5132 10.665 43.9628 10.2675 42.9322L7.02771 34.5338C6.63016 33.5032 7.15675 32.3827 8.20386 32.0312Z" stroke="white" stroke-width="2"/>
<path d="M25.0244 36.9805L21.6223 28.1611C21.3927 27.5659 21.6651 26.9146 22.2487 26.663C26.4189 24.8658 31.0227 24.1322 35.6373 24.5296L36.4373 24.5985C38.9946 24.8188 41.4164 25.9232 43.2611 27.7105L49.389 33.6475C49.5039 33.7588 49.5396 33.9248 49.479 34.0662C49.4129 34.2203 49.2481 34.3095 49.0753 34.2847L42.5874 33.3535C39.2107 32.8688 35.7915 33.1962 32.6316 34.3068L25.0244 36.9805Z" stroke="white" stroke-width="2"/>
<path d="M40.6753 48.4121L42.1511 51.9541H49.1014L48.5805 48.4121H40.6753Z" stroke="white" stroke-width="2"/>
<path d="M79.2298 48.4121L80.0588 51.9541H85.1532L86.629 48.4121H79.2298Z" stroke="white" stroke-width="2"/>
<path d="M108.495 51.2358L106.436 55.138L115.182 65.7534L120.705 65.7534L108.495 51.2358Z" stroke="white" stroke-width="2"/>
<path d="M24.682 51.548L26.741 55.4502L17.9951 66.0656L12.4719 66.0656L24.682 51.548Z" stroke="white" stroke-width="2"/>
</svg>
