<svg width="135" height="135" viewBox="0 0 135 135" fill="none" xmlns="http://www.w3.org/2000/svg">
<path d="M31.0386 19.8915H81.7377C82.4954 19.8915 83.1097 20.5058 83.1097 21.2636V21.2636C83.1097 22.0214 82.4954 22.6357 81.7377 22.6357H31.0386V19.8915Z" fill="white"/>
<path d="M33.5156 36.9373C33.5156 36.0305 34.2507 35.2954 35.1576 35.2954H75.1264C76.0332 35.2954 76.7683 36.0305 76.7683 36.9373V36.9373C76.7683 37.8442 76.0332 38.5793 75.1264 38.5793H35.1576C34.2507 38.5793 33.5156 37.8442 33.5156 36.9373V36.9373Z" fill="white"/>
<path d="M104.77 44.1442C105.023 43.7067 105.582 43.5568 106.02 43.8094L128.381 56.7199C128.819 56.9725 128.969 57.5319 128.716 57.9694V57.9694C128.464 58.407 127.904 58.5569 127.467 58.3043L105.105 45.3938C104.667 45.1412 104.518 44.5817 104.77 44.1442V44.1442Z" fill="white"/>
<path d="M128.276 56.8996C128.713 57.1522 128.863 57.7116 128.611 58.1491L117.816 76.8452C117.564 77.2827 117.004 77.4326 116.567 77.18V77.18C116.129 76.9274 115.979 76.368 116.232 75.9305L127.026 57.2344C127.279 56.7969 127.838 56.647 128.276 56.8996V56.8996Z" fill="white"/>
<path d="M41.4946 50.795C41.4946 49.8882 42.2297 49.1531 43.1366 49.1531H87.3046C88.2115 49.1531 88.9466 49.8882 88.9466 50.795V50.795C88.9466 51.7018 88.2115 52.437 87.3046 52.437H43.1366C42.2298 52.437 41.4946 51.7018 41.4946 50.795V50.795Z" fill="white"/>
<path d="M23.438 62.5529C23.438 61.6461 24.1731 60.911 25.0799 60.911H65.4686C66.3755 60.911 67.1106 61.6461 67.1106 62.5529V62.5529C67.1106 63.4598 66.3755 64.1949 65.4686 64.1949H25.0799C24.1731 64.1949 23.438 63.4598 23.438 62.5529V62.5529Z" fill="white"/>
<path d="M70.8896 62.5529C70.8896 61.6461 71.6248 60.911 72.5316 60.911H87.3047C88.2115 60.911 88.9466 61.6461 88.9466 62.5529V62.5529C88.9466 63.4598 88.2115 64.1949 87.3047 64.1949H72.5316C71.6248 64.1949 70.8896 63.4598 70.8896 62.5529V62.5529Z" fill="white"/>
<path d="M98.7286 39.1008C99.739 39.1008 100.558 39.9199 100.558 40.9303L100.558 54.6512C100.558 55.6616 99.739 56.4807 98.7286 56.4807V56.4807C97.7183 56.4807 96.8992 55.6616 96.8992 54.6512L96.8992 40.9303C96.8992 39.9199 97.7183 39.1008 98.7286 39.1008V39.1008Z" fill="white"/>
<path d="M98.7286 97.6434C99.739 97.6434 100.558 98.4625 100.558 99.4729L100.558 111.364C100.558 112.375 99.739 113.194 98.7286 113.194V113.194C97.7183 113.194 96.8992 112.375 96.8992 111.364L96.8992 99.4729C96.8992 98.4625 97.7183 97.6434 98.7286 97.6434V97.6434Z" fill="white"/>
<path d="M51.5728 72.6312C51.5728 71.7244 52.3079 70.9893 53.2147 70.9893H67.5678C68.4746 70.9893 69.2098 71.7244 69.2098 72.6312V72.6312C69.2098 73.538 68.4746 74.2731 67.5678 74.2731H53.2147C52.3079 74.2731 51.5728 73.538 51.5728 72.6312V72.6312Z" fill="white"/>
<path d="M23.438 72.6312C23.438 71.7244 24.1731 70.9893 25.0799 70.9893H45.732C46.6388 70.9893 47.3739 71.7244 47.3739 72.6312V72.6312C47.3739 73.538 46.6388 74.2731 45.732 74.2731H25.0799C24.1731 74.2731 23.438 73.538 23.438 72.6312V72.6312Z" fill="white"/>
<path d="M31.0386 19.8915L31.0386 30.8682V30.8682C29.523 30.8682 28.2944 29.6396 28.2944 28.124L28.2944 22.6357C28.2944 21.1201 29.523 19.8915 31.0386 19.8915V19.8915Z" fill="white"/>
<path d="M31.0386 28.124H81.7377C82.4954 28.124 83.1097 28.7383 83.1097 29.4961V29.4961C83.1097 30.2539 82.4954 30.8682 81.7377 30.8682H31.0386V28.124Z" fill="white"/>
<path d="M47.0056 90.13C44.0719 87.0139 40.0594 85.1352 35.7874 84.8774C31.5154 84.6197 27.3062 86.0023 24.0191 88.743C20.732 91.4837 18.615 95.3757 18.1004 99.6244C17.5858 103.873 18.7124 108.158 21.2501 111.604C23.7879 115.05 27.5453 117.398 31.7553 118.167C35.9653 118.937 41.7045 117.811 45.4839 114.032C49.2633 110.253 50.3131 103.954 49.4732 99.6244" stroke="white" stroke-width="3"/>
<path d="M27.6149 101.023C27.1474 100.314 27.3274 99.3609 28.0216 98.8705V98.8705C28.7453 98.3592 29.7482 98.5453 30.2403 99.2822L31.798 101.614C32.2076 102.228 33.1021 102.248 33.5389 101.653L37.4444 96.3389C37.8922 95.7296 38.7005 95.5086 39.3959 95.8054V95.8054C40.3676 96.2201 40.6933 97.4358 40.0593 98.2807L34.5458 105.628C33.5348 106.975 31.4935 106.913 30.567 105.506L27.6149 101.023Z" fill="white"/>
<path d="M59.1318 109.833L64.6622 93.4323C64.9642 92.5367 65.962 92.0847 66.8344 92.4482V92.4482C67.3918 92.6805 67.7752 93.2017 67.8309 93.803L68.6917 103.099C68.7512 103.743 69.1953 104.285 69.814 104.471V104.471C70.4584 104.664 71.1548 104.429 71.5505 103.885L72.0215 103.238C73.1148 101.734 75.3616 101.75 76.4335 103.269L76.8556 103.867C78.0833 105.606 80.6263 105.708 81.9891 104.072L86.6372 98.4947" stroke="white" stroke-width="2"/>
<path d="M114.579 36.9219L126.339 43.7111L102.227 85.581L90.4143 78.7771L114.579 36.9219Z" stroke="white" stroke-width="2"/>
<path d="M100.957 87.7821L95.5368 94.1516L86.6642 88.9206L89.0555 80.9932L90.3097 78.9036L102.125 85.76L100.957 87.7821ZM93.9778 95.5542L89.8891 98.7344C88.8909 99.5107 87.5209 99.6016 86.4288 98.964C85.2433 98.2718 84.6555 96.8812 84.9852 95.5485L86.1286 90.9265L93.9778 95.5542Z" stroke="white" stroke-width="2"/>
<path d="M126.321 39.6225L124.184 43.324L116.076 38.6428L118.213 34.9413C119.506 32.7023 122.369 31.9352 124.608 33.2279C126.847 34.5205 127.614 37.3835 126.321 39.6225Z" stroke="white" stroke-width="2"/>
<path fill-rule="evenodd" clip-rule="evenodd" d="M25 12H85.5581C91.6333 12 96.5581 16.9249 96.5581 23V50.0775H100.558V23C100.558 14.7157 93.8424 8 85.5581 8H25C16.7157 8 10 14.7157 10 23V111C10 119.284 16.7157 126 25 126H85.5581C93.8424 126 100.558 119.284 100.558 111V99.4729H96.5581V111C96.5581 117.075 91.6333 122 85.5581 122H25C18.9249 122 14 117.075 14 111V23C14 16.9249 18.9249 12 25 12Z" fill="white"/>
</svg>
