<svg width="135" height="135" viewBox="0 0 135 135" fill="none" xmlns="http://www.w3.org/2000/svg">
<rect x="10.5" y="46.0189" width="36.8608" height="75.8734" stroke="white" stroke-width="3"/>
<path d="M101.5 113.5H48V59.7327V59.7327C54.0941 59.7327 59.77 56.6342 63.0658 51.5083L64.8248 48.7725C64.9413 48.5913 65.0395 48.3989 65.1181 48.1983L68.6644 39.1353C69.2166 37.7242 69.5 36.2223 69.5 34.707V22.866C69.5 18.2213 74.6765 15.451 78.541 18.0274V18.0274C79.4925 18.6617 80.2359 19.5625 80.6781 20.617L82.1011 24.0103C84.9236 30.741 85.0323 38.3028 82.4042 45.1118L79.9 51.6" stroke="white" stroke-width="3"/>
<path d="M78.5 52.5H113.273C118.093 52.5 122 56.4073 122 61.2273V61.2273V61.2273C122 65.2439 118.744 68.5 114.727 68.5H111.541" stroke="white" stroke-width="3"/>
<path d="M90 68.5H117.818C122.337 68.5 126 72.1631 126 76.6818V76.6818V76.6818C126 80.4474 122.947 83.5 119.182 83.5H110.093" stroke="white" stroke-width="3"/>
<path d="M92 83.5H111.818C116.337 83.5 120 87.1631 120 91.6818V91.6818V91.6818C120 95.4474 116.947 98.5 113.182 98.5H103.284" stroke="white" stroke-width="3"/>
<path d="M92 98.5H103.818C108.337 98.5 112 102.163 112 106.682V106.682V106.682C112 110.447 108.947 113.5 105.182 113.5H101.13" stroke="white" stroke-width="3"/>
<circle cx="27.5" cy="102" r="6.5" stroke="white" stroke-width="2"/>
</svg>
