<svg width="25" height="25" viewBox="0 0 25 25" fill="none" xmlns="http://www.w3.org/2000/svg">
<path d="M23.7501 18.035V21.41C23.7514 21.7233 23.6872 22.0334 23.5617 22.3205C23.4362 22.6076 23.2521 22.8653 23.0212 23.0771C22.7903 23.2889 22.5178 23.4502 22.221 23.5505C21.9241 23.6509 21.6097 23.6882 21.2976 23.66C17.8358 23.2838 14.5105 22.1009 11.5889 20.2062C8.87066 18.479 6.56611 16.1744 4.83886 13.4562C2.93758 10.5213 1.75438 7.17986 1.38511 3.70249C1.35699 3.39139 1.39397 3.07784 1.49367 2.78181C1.59337 2.48579 1.75363 2.21376 1.96422 1.98306C2.17481 1.75236 2.43114 1.56804 2.71687 1.44182C3.00261 1.31561 3.31149 1.25028 3.62386 1.24999H6.99886C7.54483 1.24461 8.07412 1.43795 8.48809 1.79396C8.90206 2.14997 9.17244 2.64436 9.24886 3.18499C9.39131 4.26506 9.65549 5.32555 10.0364 6.34624C10.1877 6.7489 10.2205 7.18652 10.1308 7.60723C10.041 8.02794 9.83258 8.41411 9.53011 8.71999L8.10136 10.1487C9.70286 12.9652 12.0349 15.2972 14.8514 16.8987L16.2801 15.47C16.586 15.1675 16.9722 14.9591 17.3929 14.8693C17.8136 14.7796 18.2512 14.8124 18.6539 14.9637C19.6745 15.3446 20.735 15.6088 21.8151 15.7512C22.3616 15.8283 22.8607 16.1036 23.2175 16.5247C23.5742 16.9457 23.7638 17.4833 23.7501 18.035Z" stroke="#AE8617" stroke-width="2" stroke-linecap="round" stroke-linejoin="round"/>
</svg>
