<svg width="185" height="150" viewBox="0 0 185 150" fill="none" xmlns="http://www.w3.org/2000/svg">
<path d="M0 26.1133L58.0357 0.547808L62.0599 9.68315L4.02424 35.2486L0 26.1133Z" fill="#DCDCDC"/>
<rect x="150.918" y="31.2358" width="11.6453" height="18.115" fill="white"/>
<path d="M54.0112 9.68335L112.045 35.2482L116.07 26.1128L58.0355 0.548009L54.0112 9.68335Z" fill="#DCDCDC"/>
<path d="M0.822876 27.9724L58.0355 2.76954L62.0597 11.9049L4.84711 37.1078L0.822876 27.9724Z" fill="white"/>
<path d="M54.0112 11.905L111.224 37.1079L115.248 27.9726L58.0355 2.76969L54.0112 11.905Z" fill="white"/>
<path d="M74.5444 53.9187L127.134 30.7523L131.158 39.8877L78.8301 62.8195L74.5444 53.9187Z" fill="#DCDCDC"/>
<path d="M123.11 39.8879L180.976 65.3786L185 56.2433L127.134 30.7526L123.11 39.8879Z" fill="#DCDCDC"/>
<path d="M75.2502 55.3855L127.136 32.5292L131.16 41.6645L79.5319 64.2881L75.2502 55.3855Z" fill="white"/>
<path d="M123.112 41.6646L180.324 66.8674L184.349 57.7321L127.136 32.5292L123.112 41.6646Z" fill="white"/>
<rect x="17.6439" y="41.5872" width="7.76355" height="77.6355" fill="white"/>
<rect x="169.033" y="70.054" width="7.76355" height="42.6995" fill="white"/>
<rect x="156.352" y="111.64" width="20.4409" height="7.55425" fill="white"/>
<rect x="79.9205" y="111.64" width="18.2191" height="7.55425" fill="white"/>
<path d="M41.9141 131.7C40.6608 131.7 39.6904 132.173 39.0029 133.118C38.3154 134.056 37.9717 135.367 37.9717 137.05C37.9717 140.552 39.2858 142.303 41.9141 142.303C43.0169 142.303 44.3526 142.027 45.9209 141.476V144.269C44.6319 144.806 43.1924 145.074 41.6026 145.074C39.3181 145.074 37.5707 144.383 36.3604 143.001C35.1501 141.612 34.5449 139.621 34.5449 137.028C34.5449 135.396 34.8421 133.967 35.4365 132.742C36.0309 131.51 36.8832 130.569 37.9932 129.917C39.1104 129.258 40.4173 128.929 41.9141 128.929C43.4395 128.929 44.972 129.298 46.5117 130.035L45.4375 132.742C44.8503 132.463 44.2595 132.219 43.6651 132.012C43.0707 131.804 42.487 131.7 41.9141 131.7ZM47.5628 143.323C47.5628 142.722 47.7239 142.267 48.0462 141.959C48.3684 141.651 48.8375 141.497 49.4534 141.497C50.0478 141.497 50.5061 141.655 50.8284 141.97C51.1578 142.285 51.3225 142.736 51.3225 143.323C51.3225 143.889 51.1578 144.337 50.8284 144.666C50.4989 144.988 50.0406 145.149 49.4534 145.149C48.8518 145.149 48.3863 144.992 48.0569 144.677C47.7275 144.354 47.5628 143.903 47.5628 143.323ZM66.3706 144.859H62.5894L56.896 136.899V144.859H53.5659V129.154H56.896V136.76L62.5249 129.154H66.0698L60.3442 136.695L66.3706 144.859ZM66.6374 143.323C66.6374 142.722 66.7986 142.267 67.1208 141.959C67.4431 141.651 67.9122 141.497 68.5281 141.497C69.1225 141.497 69.5808 141.655 69.9031 141.97C70.2325 142.285 70.3972 142.736 70.3972 143.323C70.3972 143.889 70.2325 144.337 69.9031 144.666C69.5736 144.988 69.1153 145.149 68.5281 145.149C67.9265 145.149 67.461 144.992 67.1316 144.677C66.8022 144.354 66.6374 143.903 66.6374 143.323ZM83.424 144.859H80.094V131.926H75.8293V129.154H87.6887V131.926H83.424V144.859ZM96.4848 144.859L95.851 143.227H95.7651C95.2137 143.921 94.6443 144.405 94.0571 144.677C93.477 144.942 92.7179 145.074 91.7797 145.074C90.6268 145.074 89.7172 144.745 89.0512 144.086C88.3924 143.427 88.063 142.489 88.063 141.271C88.063 139.997 88.507 139.059 89.395 138.457C90.2902 137.848 91.6365 137.512 93.434 137.447L95.518 137.383V136.856C95.518 135.639 94.895 135.03 93.6489 135.03C92.6893 135.03 91.5613 135.32 90.2651 135.9L89.1801 133.688C90.5623 132.964 92.0949 132.603 93.7778 132.603C95.3891 132.603 96.6245 132.953 97.4838 133.655C98.3432 134.357 98.7729 135.424 98.7729 136.856V144.859H96.4848ZM95.518 139.295L94.2505 139.338C93.298 139.367 92.589 139.538 92.1235 139.854C91.658 140.169 91.4253 140.648 91.4253 141.293C91.4253 142.217 91.9552 142.679 93.0151 142.679C93.7742 142.679 94.3794 142.46 94.8305 142.023C95.2889 141.587 95.518 141.007 95.518 140.283V139.295ZM104.443 132.85V137.469H109.019V132.85H112.296V144.859H109.019V139.907H104.443V144.859H101.167V132.85H104.443ZM122.263 142.464V135.31H119.803C119.624 136.642 119.377 137.906 119.061 139.102C118.754 140.298 118.324 141.418 117.772 142.464H122.263ZM127.301 149.167H124.357V144.859H116.279V149.167H113.336V142.464H114.346C115.033 141.397 115.61 140.05 116.075 138.425C116.541 136.799 116.866 134.941 117.053 132.85H125.539V142.464H127.301V149.167ZM133.336 134.955C132.641 134.955 132.097 135.177 131.703 135.621C131.309 136.058 131.084 136.681 131.027 137.49H135.624C135.61 136.681 135.399 136.058 134.99 135.621C134.582 135.177 134.031 134.955 133.336 134.955ZM133.798 145.074C131.864 145.074 130.353 144.541 129.265 143.474C128.176 142.407 127.632 140.896 127.632 138.94C127.632 136.928 128.133 135.374 129.136 134.278C130.146 133.175 131.539 132.624 133.315 132.624C135.012 132.624 136.333 133.107 137.278 134.074C138.224 135.041 138.696 136.377 138.696 138.081V139.671H130.951C130.987 140.602 131.263 141.329 131.778 141.852C132.294 142.374 133.017 142.636 133.948 142.636C134.672 142.636 135.356 142.561 136 142.41C136.645 142.26 137.318 142.02 138.02 141.69V144.226C137.447 144.512 136.834 144.723 136.183 144.859C135.531 145.003 134.736 145.074 133.798 145.074ZM155.506 144.859H152.445V135.396L152.273 136.062C151.886 137.573 151.539 138.715 151.231 139.488L149.104 144.859H146.773L144.614 139.445C144.306 138.658 143.976 137.551 143.625 136.126L143.421 135.396V144.859H140.371V132.85H144.882L146.945 137.974C147.16 138.525 147.357 139.159 147.536 139.875C147.722 140.591 147.847 141.203 147.912 141.712C148.148 140.638 148.33 139.868 148.459 139.402C148.595 138.93 148.742 138.496 148.9 138.103C149.057 137.709 149.77 135.958 151.038 132.85H155.506V144.859Z" fill="#F1C856"/>
<rect x="47.4043" y="32.5298" width="20.7028" height="3.18505" fill="white"/>
<rect x="68.1071" y="35.7151" width="23.8879" height="3.18505" transform="rotate(90 68.1071 35.7151)" fill="white"/>
<rect x="50.5894" y="35.7151" width="23.8879" height="3.18505" transform="rotate(90 50.5894 35.7151)" fill="white"/>
<rect x="47.4042" y="59.603" width="20.7028" height="3.18505" fill="white"/>
<rect x="56.9595" y="34.1226" width="1.59252" height="25.4804" fill="white"/>
<rect x="64.9221" y="42.0852" width="1.59252" height="14.3327" transform="rotate(90 64.9221 42.0852)" fill="white"/>
<path d="M73.1136 82.7559L67.9379 87.414V118.986H73.1136V82.7559Z" fill="white"/>
<path d="M73.1136 82.7559L77.2542 87.414V118.986H73.1136V82.7559Z" fill="white"/>
<path d="M59.6567 82.7559L54.481 87.414V118.986H59.6567V82.7559Z" fill="white"/>
<path d="M59.6567 82.7559L63.7973 87.414V118.986H59.6567V82.7559Z" fill="white"/>
<rect width="26.2177" height="3.99931" transform="matrix(-1 0 0 1 75.4767 92.9766)" fill="white"/>
<rect width="27.9952" height="3.99931" transform="matrix(-1 0 0 1 75.4767 108.529)" fill="white"/>
<path d="M47.3403 82.7559L42.1646 87.414V118.986H47.3403V82.7559Z" fill="white"/>
<path d="M47.3403 82.7559L51.4809 87.414V118.986H47.3403V82.7559Z" fill="white"/>
<path d="M33.8835 82.7559L28.7078 87.414V118.986H33.8835V82.7559Z" fill="white"/>
<path d="M33.8835 82.7559L38.0241 87.414V118.986H33.8835V82.7559Z" fill="white"/>
<rect width="26.2177" height="3.99931" transform="matrix(-1 0 0 1 49.7035 92.9766)" fill="white"/>
<rect width="27.9952" height="3.99931" transform="matrix(-1 0 0 1 49.7035 108.529)" fill="white"/>
<rect x="101.362" y="76.0916" width="51.5466" height="43.1037" fill="white"/>
<rect x="100.028" y="73.8687" width="54.2129" height="4.44368" fill="#EAEAEA"/>
<rect x="103.583" y="84.9778" width="47.103" height="6.22115" fill="#F4F4F4"/>
<rect x="103.583" y="96.0872" width="47.103" height="6.22115" fill="#F4F4F4"/>
<rect x="103.583" y="107.196" width="47.103" height="6.22115" fill="#F4F4F4"/>
<circle cx="127.024" cy="57.8713" r="5.27678" stroke="white"/>
<rect x="126.579" y="52.5388" width="0.888735" height="10.6648" fill="white"/>
<rect x="132.356" y="57.427" width="0.888735" height="10.6648" transform="rotate(90 132.356 57.427)" fill="white"/>
</svg>
