<svg width="40" height="40" viewBox="0 0 40 40" fill="none" xmlns="http://www.w3.org/2000/svg">
<rect width="40" height="40" fill="url(#paint0_linear)"/>
<path d="M19.9967 5.23178C13.945 5.23178 8.19833 4.69345 6.00333 10.3268C5.09666 12.6535 5.22833 15.6751 5.22833 20.0018C5.22833 23.7985 5.10666 27.3668 6.00333 29.6751C8.19333 35.3118 13.9867 34.7718 19.9933 34.7718C25.7883 34.7718 31.7633 35.3751 33.985 29.6751C34.8933 27.3251 34.76 24.3485 34.76 20.0018C34.76 14.2318 35.0783 10.5068 32.28 7.71012C29.4467 4.87678 25.615 5.23178 19.99 5.23178H19.9967ZM18.6733 7.89345C31.2967 7.87345 32.9033 6.47012 32.0167 25.9651C31.7017 32.8601 26.4517 32.1035 19.9983 32.1035C8.23166 32.1035 7.89333 31.7668 7.89333 19.9951C7.89333 8.08678 8.82666 7.90012 18.6733 7.89012V7.89345ZM27.88 10.3451C26.9017 10.3451 26.1083 11.1385 26.1083 12.1168C26.1083 13.0951 26.9017 13.8885 27.88 13.8885C28.8583 13.8885 29.6517 13.0951 29.6517 12.1168C29.6517 11.1385 28.8583 10.3451 27.88 10.3451ZM19.9967 12.4168C15.8083 12.4168 12.4133 15.8135 12.4133 20.0018C12.4133 24.1901 15.8083 27.5851 19.9967 27.5851C24.185 27.5851 27.5783 24.1901 27.5783 20.0018C27.5783 15.8135 24.185 12.4168 19.9967 12.4168ZM19.9967 15.0785C26.505 15.0785 26.5133 24.9251 19.9967 24.9251C13.49 24.9251 13.48 15.0785 19.9967 15.0785Z" fill="white"/>
<defs>
<linearGradient id="paint0_linear" x1="2.68567" y1="37.394" x2="39.7484" y2="5.31035" gradientUnits="userSpaceOnUse">
<stop stop-color="#FFDD55"/>
<stop offset="0.5" stop-color="#FF543E"/>
<stop offset="1" stop-color="#C837AB"/>
</linearGradient>
</defs>
</svg>
