<svg width="30" height="30" viewBox="0 0 30 30" fill="none" xmlns="http://www.w3.org/2000/svg">
<path d="M14.9967 0.0142535C8.94501 0.0142535 3.19835 -0.52408 1.00335 5.10925C0.0966827 7.43592 0.22835 10.4576 0.22835 14.7843C0.22835 18.5809 0.106683 22.1493 1.00335 24.4576C3.19335 30.0943 8.98668 29.5543 14.9933 29.5543C20.7883 29.5543 26.7633 30.1576 28.985 24.4576C29.8933 22.1076 29.76 19.1309 29.76 14.7843C29.76 9.01426 30.0783 5.28925 27.28 2.49259C24.4467 -0.340747 20.615 0.0142535 14.99 0.0142535H14.9967ZM13.6733 2.67592C26.2967 2.65592 27.9033 1.25259 27.0167 20.7476C26.7017 27.6426 21.4517 26.8859 14.9983 26.8859C3.23168 26.8859 2.89335 26.5493 2.89335 14.7776C2.89335 2.86925 3.82668 2.68259 13.6733 2.67259V2.67592ZM22.88 5.12759C21.9017 5.12759 21.1083 5.92092 21.1083 6.89925C21.1083 7.87759 21.9017 8.67092 22.88 8.67092C23.8583 8.67092 24.6517 7.87759 24.6517 6.89925C24.6517 5.92092 23.8583 5.12759 22.88 5.12759ZM14.9967 7.19925C10.8083 7.19925 7.41335 10.5959 7.41335 14.7843C7.41335 18.9726 10.8083 22.3676 14.9967 22.3676C19.185 22.3676 22.5783 18.9726 22.5783 14.7843C22.5783 10.5959 19.185 7.19925 14.9967 7.19925ZM14.9967 9.86092C21.505 9.86092 21.5133 19.7076 14.9967 19.7076C8.49002 19.7076 8.48001 9.86092 14.9967 9.86092Z" fill="#AE8617"/>
</svg>
