<svg width="360" height="354" viewBox="0 0 360 354" fill="none" xmlns="http://www.w3.org/2000/svg">
<path d="M21.5 195.5C33.3741 195.5 43 185.874 43 174C43 162.126 33.3741 152.5 21.5 152.5C9.62588 152.5 0 162.126 0 174C0 185.874 9.62588 195.5 21.5 195.5Z" fill="#E7B736"/>
<path d="M332.5 207.5C347.688 207.5 360 195.188 360 180C360 164.812 347.688 152.5 332.5 152.5C317.312 152.5 305 164.812 305 180C305 195.188 317.312 207.5 332.5 207.5Z" fill="#E7B736"/>
<path d="M170.5 18.5C170.5 28.7173 178.783 37 189 37C199.217 37 207.5 28.7173 207.5 18.5C207.5 8.28273 199.217 0 189 0C178.783 0 170.5 8.28273 170.5 18.5Z" fill="#E7B736"/>
<path d="M158.5 329.5C158.5 343.031 169.469 354 183 354C196.531 354 207.5 343.031 207.5 329.5C207.5 315.969 196.531 305 183 305C169.469 305 158.5 315.969 158.5 329.5Z" fill="#E7B736"/>
<path d="M58.0241 75.7019C65.8346 83.5123 78.4979 83.5123 86.3084 75.7019C94.1189 67.8914 94.1189 55.2281 86.3084 47.4176C78.4979 39.6071 65.8346 39.6071 58.0241 47.4176C50.2136 55.2281 50.2136 67.8914 58.0241 75.7019Z" fill="#E7B736"/>
<path d="M269.096 305.158C279.445 315.507 296.223 315.507 306.572 305.158C316.921 294.809 316.921 278.031 306.572 267.682C296.223 257.333 279.445 257.333 269.096 267.682C258.747 278.031 258.747 294.809 269.096 305.158Z" fill="#E7B736"/>
<path d="M290.662 60.1455C284.023 66.7844 284.023 77.5482 290.662 84.1871C297.301 90.8261 308.065 90.8261 314.704 84.1871C321.343 77.5482 321.343 66.7844 314.704 60.1455C308.065 53.5066 297.301 53.5066 290.662 60.1455Z" fill="#E7B736"/>
<path d="M62.2668 271.571C53.2847 280.553 53.2847 295.115 62.2668 304.097C71.2488 313.079 85.8116 313.08 94.7937 304.097C103.776 295.115 103.776 280.553 94.7937 271.571C85.8116 262.588 71.2488 262.588 62.2668 271.571Z" fill="#E7B736"/>
</svg>
