<svg width="28" height="33" viewBox="0 0 28 33" fill="none" xmlns="http://www.w3.org/2000/svg">
<path d="M1 7.37848H3.875H26.875" stroke="white" stroke-width="2" stroke-linecap="round" stroke-linejoin="round"/>
<path d="M8.1875 7.37847V4.42361C8.1875 3.63993 8.4904 2.88835 9.02957 2.33421C9.56874 1.78006 10.3 1.46875 11.0625 1.46875H16.8125C17.575 1.46875 18.3063 1.78006 18.8454 2.33421C19.3846 2.88835 19.6875 3.63993 19.6875 4.42361V7.37847M24 7.37847V28.0625C24 28.8462 23.6971 29.5978 23.1579 30.1519C22.6188 30.706 21.8875 31.0174 21.125 31.0174H6.75C5.9875 31.0174 5.25623 30.706 4.71707 30.1519C4.1779 29.5978 3.875 28.8462 3.875 28.0625V7.37847H24Z" stroke="white" stroke-width="2" stroke-linecap="round" stroke-linejoin="round"/>
<path d="M11.0625 14.7656V23.6302" stroke="white" stroke-width="2" stroke-linecap="round" stroke-linejoin="round"/>
<path d="M16.8125 14.7656V23.6302" stroke="white" stroke-width="2" stroke-linecap="round" stroke-linejoin="round"/>
</svg>
