<svg width="28" height="16" viewBox="0 0 28 16" fill="none" xmlns="http://www.w3.org/2000/svg">
<path fill-rule="evenodd" clip-rule="evenodd" d="M27.3409 1.79469C27.5485 1.22394 27.3409 0.809026 26.4221 0.809026H23.3672C22.8697 0.809026 22.5451 0.960433 22.3216 1.17231C22.0865 1.39527 21.9644 1.70748 21.815 1.99509C21.3115 2.96487 19.9788 5.35364 18.2671 7.0322C17.5554 7.65456 17.2294 7.86202 16.8438 7.86202C16.6361 7.86202 16.3689 7.65456 16.3689 7.08431V1.76788C16.3689 1.0939 16.1321 0.782715 15.4794 0.782715H10.675C10.2002 0.782715 9.90385 1.0939 9.90385 1.40508C9.90385 2.05326 11.0011 2.2091 11.1195 4.02409V7.96777C11.1195 8.8234 10.9445 8.97975 10.556 8.97975C9.51826 8.97975 6.99768 5.63465 5.48567 1.82303C5.19167 1.06809 4.89301 0.782715 4.12184 0.782715H1.03775C0.148167 0.782715 0 1.14551 0 1.53462C0 2.23491 1.03775 5.76115 4.83351 10.4284C7.35409 13.6161 10.9422 15.3294 14.1744 15.3294C16.1321 15.3294 16.3689 14.9403 16.3689 14.2921V11.8806C16.3689 11.1029 16.5469 10.9734 17.1699 10.9734C17.6144 10.9734 18.4153 11.1803 20.2242 12.7104C22.2997 14.5254 22.6555 15.3552 23.8123 15.3552H26.8666C27.7562 15.3552 28.1715 14.9661 27.9341 14.2142C27.6675 13.4623 26.659 12.3734 25.354 11.0771C24.6424 10.3515 23.5749 9.54747 23.2488 9.15837C22.8784 8.72619 23.7249 7.3481 24.0704 6.89582C25.1863 5.43523 27.0733 2.8752 27.3409 1.79267" fill="#AE8617"/>
</svg>
