<svg width="40" height="40" viewBox="0 0 40 40" fill="none" xmlns="http://www.w3.org/2000/svg">
<rect width="40" height="40" fill="#467CCE"/>
<path fill-rule="evenodd" clip-rule="evenodd" d="M33.3409 15.012C33.5485 14.4412 33.3409 14.0263 32.4221 14.0263H29.3672C28.8697 14.0263 28.5451 14.1777 28.3216 14.3896C28.0865 14.6126 27.9644 14.9248 27.815 15.2124C27.3115 16.1822 25.9788 18.5709 24.2671 20.2495C23.5554 20.8718 23.2294 21.0793 22.8438 21.0793C22.6361 21.0793 22.3689 20.8718 22.3689 20.3016V14.9852C22.3689 14.3112 22.1321 14 21.4794 14H16.675C16.2002 14 15.9038 14.3112 15.9038 14.6224C15.9038 15.2705 17.0011 15.4264 17.1195 17.2414V21.1851C17.1195 22.0407 16.9445 22.197 16.556 22.197C15.5183 22.197 12.9977 18.8519 11.4857 15.0403C11.1917 14.2854 10.893 14 10.1218 14H7.03775C6.14817 14 6 14.3628 6 14.7519C6 15.4522 7.03775 18.9784 10.8335 23.6457C13.3541 26.8334 16.9422 28.5467 20.1744 28.5467C22.1321 28.5467 22.3689 28.1576 22.3689 27.5094V25.0979C22.3689 24.3202 22.5469 24.1906 23.1699 24.1906C23.6144 24.1906 24.4153 24.3976 26.2242 25.9277C28.2997 27.7427 28.6555 28.5725 29.8123 28.5725H32.8666C33.7562 28.5725 34.1715 28.1834 33.9341 27.4315C33.6675 26.6796 32.659 25.5907 31.354 24.2944C30.6424 23.5688 29.5749 22.7648 29.2488 22.3757V22.3757C28.8784 21.9435 29.7249 20.5654 30.0704 20.1131C31.1863 18.6525 33.0733 16.0925 33.3409 15.01" fill="white"/>
</svg>
