<svg width="42" height="40" viewBox="0 0 42 40" fill="none" xmlns="http://www.w3.org/2000/svg">
<rect x="0.413574" width="41.1728" height="40" fill="#5DCF58"/>
<g clip-path="url(#clip0)">
<path d="M6.27756 34.9998C6.10416 34.9998 5.93548 34.9332 5.81038 34.8103C5.64546 34.6483 5.58185 34.413 5.64381 34.193L7.6513 27.0711C6.40148 24.8754 5.74253 22.3916 5.74347 19.8702C5.747 11.6705 12.6155 4.99976 21.0549 4.99976C25.1483 5.00136 28.9946 6.55043 31.8855 9.36111C34.776 12.172 36.3672 15.9085 36.366 19.8821C36.3623 28.0821 29.4938 34.7533 21.0549 34.7533C21.0549 34.7533 21.0485 34.7533 21.0483 34.7533C18.5833 34.7524 16.1395 34.1687 13.9635 33.0632L6.44412 34.979C6.38899 34.993 6.33292 34.9998 6.27756 34.9998V34.9998Z" fill="#E5E5E5"/>
<path d="M6.27756 34.3615L8.35643 26.9863C7.07409 24.8277 6.39959 22.3791 6.40053 19.8705C6.40383 12.0229 12.9773 5.63818 21.0549 5.63818C24.9747 5.63979 28.6539 7.12203 31.4207 9.81231C34.1873 12.5026 35.7104 16.0786 35.709 19.882C35.7054 27.7294 29.131 34.115 21.0549 34.115C21.0544 34.115 21.0551 34.115 21.0549 34.115H21.0485C18.596 34.1141 16.1864 33.5165 14.046 32.3824L6.27756 34.3615ZM14.4057 29.8059L14.8508 30.062C16.7204 31.14 18.8641 31.7102 21.0502 31.7113H21.0549C27.7679 31.7113 33.2317 26.404 33.2345 19.8811C33.2357 16.72 31.9701 13.7475 29.6705 11.5115C27.3706 9.27558 24.3129 8.04351 21.0594 8.04213C14.341 8.04213 8.87732 13.3488 8.87473 19.8715C8.87379 22.1067 9.51743 24.2834 10.7369 26.1671L11.0266 26.6148L9.7959 30.98L14.4057 29.8059Z" fill="white"/>
<path d="M6.78714 33.8646L8.79416 26.7443C7.55588 24.6605 6.90494 22.2964 6.90565 19.8751C6.90871 12.2991 13.2549 6.1355 21.0523 6.1355C24.8368 6.1371 28.3889 7.56807 31.0593 10.1652C33.7305 12.7623 35.2006 16.2146 35.1992 19.8858C35.1959 27.4621 28.8495 33.6263 21.053 33.6263C21.0523 33.6263 21.0532 33.6263 21.053 33.6263H21.0466C18.6792 33.6254 16.3527 33.0482 14.2865 31.9541L6.78714 33.8646Z" fill="#5DCF58"/>
<path d="M6.27756 34.3615L8.35643 26.9863C7.07409 24.8277 6.39959 22.3791 6.40053 19.8705C6.40383 12.0229 12.9773 5.63818 21.0549 5.63818C24.9747 5.63979 28.6539 7.12203 31.4207 9.81231C34.1873 12.5026 35.7104 16.0786 35.709 19.882C35.7054 27.7294 29.131 34.115 21.0549 34.115C21.0544 34.115 21.0551 34.115 21.0549 34.115H21.0485C18.596 34.1141 16.1864 33.5165 14.046 32.3824L6.27756 34.3615ZM14.4057 29.8059L14.8508 30.062C16.7204 31.14 18.8641 31.7102 21.0502 31.7113H21.0549C27.7679 31.7113 33.2317 26.404 33.2345 19.8811C33.2357 16.72 31.9701 13.7475 29.6705 11.5115C27.3706 9.27558 24.3129 8.04351 21.0594 8.04213C14.341 8.04213 8.87732 13.3488 8.87473 19.8715C8.87379 22.1067 9.51743 24.2834 10.7369 26.1671L11.0266 26.6148L9.7959 30.98L14.4057 29.8059Z" fill="white"/>
<path fill-rule="evenodd" clip-rule="evenodd" d="M17.3923 13.9204C17.1181 13.328 16.8293 13.3161 16.5682 13.3058C16.3548 13.2969 16.1105 13.2974 15.8666 13.2974C15.6226 13.2974 15.2258 13.3866 14.8904 13.7425C14.5546 14.0985 13.6085 14.9591 13.6085 16.7093C13.6085 18.4598 14.9207 20.151 15.1038 20.3886C15.2869 20.626 17.6369 24.3325 21.3586 25.7584C24.4516 26.9436 25.0809 26.7078 25.7524 26.6485C26.4238 26.5893 27.9186 25.7879 28.2237 24.9573C28.529 24.1267 28.529 23.4149 28.4374 23.2659C28.3458 23.1178 28.1017 23.0288 27.7356 22.8509C27.3695 22.6731 25.5693 21.8122 25.2336 21.6937C24.8979 21.5749 24.6538 21.5158 24.4097 21.872C24.1654 22.2277 23.4643 23.0288 23.2506 23.2659C23.0369 23.5037 22.8232 23.5334 22.4571 23.3554C22.091 23.1771 20.9116 22.8017 19.5127 21.5898C18.4242 20.647 17.6892 19.4825 17.4755 19.1263C17.2621 18.7706 17.472 18.5949 17.6364 18.4005C17.9326 18.0506 18.4294 17.4214 18.5515 17.1842C18.6735 16.9467 18.6125 16.7391 18.5211 16.561C18.4294 16.3832 17.7177 14.624 17.3923 13.9204V13.9204Z" fill="white"/>
</g>
<defs>
<clipPath id="clip0">
<rect width="30.8796" height="30.0001" fill="white" transform="translate(5.56018 4.99976)"/>
</clipPath>
</defs>
</svg>
