<svg width="417" height="350" viewBox="0 0 417 350" fill="none" xmlns="http://www.w3.org/2000/svg">
<path d="M0.147705 57.5322L130.751 -2.54798e-05L139.807 20.558L9.2038 78.0903L0.147705 57.5322Z" fill="#DCDCDC"/>
<rect x="339.772" y="69.0601" width="26.2065" height="40.7657" fill="white"/>
<path d="M121.694 20.5581L252.294 78.0889L261.35 57.5309L130.75 3.68581e-05L121.694 20.5581Z" fill="#DCDCDC"/>
<path d="M1.99939 61.7161L130.75 4.99982L139.806 25.5579L11.0555 82.2742L1.99939 61.7161Z" fill="white"/>
<path d="M121.694 25.5581L250.445 82.2744L259.501 61.7163L130.75 5.00004L121.694 25.5581Z" fill="white"/>
<path d="M167.902 120.105L286.248 67.9719L295.305 88.53L177.546 140.135L167.902 120.105Z" fill="#DCDCDC"/>
<path d="M277.193 88.5303L407.414 145.894L416.47 125.336L286.249 67.9722L277.193 88.5303Z" fill="#DCDCDC"/>
<path d="M169.49 123.406L286.253 71.9702L295.309 92.5283L179.125 143.44L169.49 123.406Z" fill="white"/>
<path d="M277.197 92.5283L405.948 149.245L415.004 128.687L286.253 71.9703L277.197 92.5283Z" fill="white"/>
<rect x="39.8533" y="92.3547" width="17.471" height="174.71" fill="white"/>
<rect x="380.538" y="156.415" width="17.471" height="96.0906" fill="white"/>
<rect x="352" y="250" width="46" height="17" fill="white"/>
<rect x="180" y="250" width="41" height="17" fill="white"/>
<path d="M59.3375 298.719C55.6917 298.719 52.8687 300.094 50.8687 302.844C48.8687 305.573 47.8687 309.385 47.8687 314.281C47.8687 324.469 51.6917 329.562 59.3375 329.562C62.5458 329.562 66.4312 328.76 70.9937 327.156V335.281C67.2437 336.844 63.0562 337.625 58.4312 337.625C51.7854 337.625 46.7021 335.615 43.1812 331.594C39.6604 327.552 37.9 321.76 37.9 314.219C37.9 309.469 38.7646 305.312 40.4937 301.75C42.2229 298.167 44.7021 295.427 47.9312 293.531C51.1812 291.615 54.9833 290.656 59.3375 290.656C63.775 290.656 68.2333 291.729 72.7125 293.875L69.5875 301.75C67.8792 300.938 66.1604 300.229 64.4312 299.625C62.7021 299.021 61.0042 298.719 59.3375 298.719ZM75.77 332.531C75.77 330.781 76.2387 329.458 77.1762 328.562C78.1137 327.667 79.4783 327.219 81.27 327.219C82.9992 327.219 84.3325 327.677 85.27 328.594C86.2283 329.51 86.7075 330.823 86.7075 332.531C86.7075 334.177 86.2283 335.479 85.27 336.438C84.3117 337.375 82.9783 337.844 81.27 337.844C79.52 337.844 78.1658 337.385 77.2075 336.469C76.2492 335.531 75.77 334.219 75.77 332.531ZM130.484 337H119.484L102.921 313.844V337H93.2337V291.312H102.921V313.438L119.296 291.312H129.609L112.952 313.25L130.484 337ZM131.26 332.531C131.26 330.781 131.729 329.458 132.666 328.562C133.604 327.667 134.968 327.219 136.76 327.219C138.489 327.219 139.822 327.677 140.76 328.594C141.718 329.51 142.197 330.823 142.197 332.531C142.197 334.177 141.718 335.479 140.76 336.438C139.802 337.375 138.468 337.844 136.76 337.844C135.01 337.844 133.656 337.385 132.697 336.469C131.739 335.531 131.26 334.219 131.26 332.531ZM180.094 337H170.406V299.375H158V291.312H192.5V299.375H180.094V337ZM218.089 337L216.245 332.25H215.995C214.391 334.271 212.735 335.677 211.026 336.469C209.339 337.24 207.13 337.625 204.401 337.625C201.047 337.625 198.401 336.667 196.464 334.75C194.547 332.833 193.589 330.104 193.589 326.562C193.589 322.854 194.88 320.125 197.464 318.375C200.068 316.604 203.985 315.625 209.214 315.438L215.276 315.25V313.719C215.276 310.177 213.464 308.406 209.839 308.406C207.047 308.406 203.766 309.25 199.995 310.938L196.839 304.5C200.86 302.396 205.318 301.344 210.214 301.344C214.901 301.344 218.495 302.365 220.995 304.406C223.495 306.448 224.745 309.552 224.745 313.719V337H218.089ZM215.276 320.812L211.589 320.938C208.818 321.021 206.755 321.521 205.401 322.438C204.047 323.354 203.37 324.75 203.37 326.625C203.37 329.312 204.912 330.656 207.995 330.656C210.203 330.656 211.964 330.021 213.276 328.75C214.61 327.479 215.276 325.792 215.276 323.688V320.812ZM241.24 302.062V315.5H254.552V302.062H264.084V337H254.552V322.594H241.24V337H231.709V302.062H241.24ZM293.079 330.031V309.219H285.922C285.402 313.094 284.683 316.771 283.766 320.25C282.87 323.729 281.62 326.99 280.016 330.031H293.079ZM307.735 349.531H299.172V337H275.672V349.531H267.11V330.031H270.047C272.047 326.927 273.725 323.01 275.079 318.281C276.433 313.552 277.381 308.146 277.922 302.062H302.61V330.031H307.735V349.531ZM325.292 308.188C323.272 308.188 321.688 308.833 320.542 310.125C319.397 311.396 318.74 313.208 318.574 315.562H331.949C331.907 313.208 331.292 311.396 330.105 310.125C328.917 308.833 327.313 308.188 325.292 308.188ZM326.636 337.625C321.011 337.625 316.615 336.073 313.449 332.969C310.282 329.865 308.699 325.469 308.699 319.781C308.699 313.927 310.157 309.406 313.074 306.219C316.011 303.01 320.063 301.406 325.23 301.406C330.167 301.406 334.011 302.812 336.761 305.625C339.511 308.438 340.886 312.323 340.886 317.281V321.906H318.355C318.459 324.615 319.261 326.729 320.761 328.25C322.261 329.771 324.365 330.531 327.074 330.531C329.178 330.531 331.167 330.312 333.042 329.875C334.917 329.438 336.876 328.74 338.917 327.781V335.156C337.251 335.99 335.47 336.604 333.574 337C331.678 337.417 329.365 337.625 326.636 337.625ZM389.788 337H380.881V309.469L380.381 311.406C379.256 315.802 378.246 319.125 377.35 321.375L371.163 337H364.381L358.1 321.25C357.204 318.958 356.246 315.74 355.225 311.594L354.631 309.469V337H345.756V302.062H358.881L364.881 316.969C365.506 318.573 366.079 320.417 366.6 322.5C367.142 324.583 367.506 326.365 367.694 327.844C368.381 324.719 368.913 322.479 369.288 321.125C369.683 319.75 370.11 318.49 370.569 317.344C371.027 316.198 373.1 311.104 376.788 302.062H389.788V337Z" fill="white"/>
<rect x="106.826" y="71.9719" width="46.5894" height="7.1676" fill="white"/>
<rect x="153.415" y="79.1396" width="53.757" height="7.16759" transform="rotate(90 153.415 79.1396)" fill="white"/>
<rect x="113.993" y="79.1396" width="53.757" height="7.16759" transform="rotate(90 113.993 79.1396)" fill="white"/>
<rect x="106.826" y="132.896" width="46.5894" height="7.1676" fill="white"/>
<rect x="128.328" y="75.5557" width="3.5838" height="57.3408" fill="white"/>
<rect x="146.247" y="93.4749" width="3.5838" height="32.2542" transform="rotate(90 146.247 93.4749)" fill="white"/>
<path d="M164.682 185L153.035 195.483V266.531H164.682V185Z" fill="white"/>
<path d="M164.682 185L174 195.483V266.531H164.682V185Z" fill="white"/>
<path d="M134.399 185L122.752 195.483V266.531H134.399V185Z" fill="white"/>
<path d="M134.399 185L143.717 195.483V266.531H134.399V185Z" fill="white"/>
<rect width="59" height="9" transform="matrix(-1 0 0 1 170 208)" fill="white"/>
<rect width="63" height="9" transform="matrix(-1 0 0 1 170 243)" fill="white"/>
<path d="M106.682 185L95.0348 195.483V266.531H106.682V185Z" fill="white"/>
<path d="M106.682 185L116 195.483V266.531H106.682V185Z" fill="white"/>
<path d="M76.399 185L64.7517 195.483V266.531H76.399V185Z" fill="white"/>
<path d="M76.399 185L85.7169 195.483V266.531H76.399V185Z" fill="white"/>
<rect width="59" height="9" transform="matrix(-1 0 0 1 112 208)" fill="white"/>
<rect width="63" height="9" transform="matrix(-1 0 0 1 112 243)" fill="white"/>
<rect x="228.25" y="170" width="116" height="97" fill="white"/>
<rect x="225.25" y="165" width="122" height="10" fill="#EAEAEA"/>
<rect x="233.25" y="190" width="106" height="14" fill="#F4F4F4"/>
<rect x="233.25" y="215" width="106" height="14" fill="#F4F4F4"/>
<rect x="233.25" y="240" width="106" height="14" fill="#F4F4F4"/>
<circle cx="286" cy="129" r="11.5" stroke="white" stroke-width="3"/>
<rect x="285" y="117" width="2" height="24" fill="white"/>
<rect x="298" y="128" width="2" height="24" transform="rotate(90 298 128)" fill="white"/>
</svg>
